<?xml version="1.0" encoding="utf-8"?>
<!-- Generator: Adobe Illustrator 22.1.0, SVG Export Plug-In . SVG Version: 6.00 Build 0)  -->
<svg version="1.1" id="Camada_1" xmlns="http://www.w3.org/2000/svg" xmlns:xlink="http://www.w3.org/1999/xlink" x="0px" y="0px"
	 viewBox="0 0 210 90" style="enable-background:new 0 0 210 90;" xml:space="preserve">
<style type="text/css">
	.st0{fill:#E65E09;}
	.st1{fill:#1D3176;}
	.st2{fill:url(#SVGID_1_);}
	.st3{fill:url(#SVGID_2_);}
	.st4{fill:url(#SVGID_3_);}
	.st5{fill:url(#SVGID_4_);}
</style>
<g>
	<g>
		<path class="st0" d="M109,60.9c0-3.8,2.9-6.5,6.6-6.5c3.7,0,6.6,2.8,6.6,6.5c0,3.8-2.9,6.5-6.6,6.5C111.9,67.4,109,64.6,109,60.9z
			 M119.5,60.9c0-2.4-1.6-4.2-3.9-4.2c-2.3,0-3.9,1.8-3.9,4.2s1.6,4.2,3.9,4.2C117.9,65,119.5,63.2,119.5,60.9z"/>
		<path class="st0" d="M124.5,59.2h2.5l-0.1,1.2c0.6-1,1.3-1.4,2.3-1.4c1,0,1.8,0.4,2.2,1.4c0.7-0.8,1.5-1.4,2.7-1.4
			c2,0,3.2,1.3,3.2,3.5v4.6h-2.5v-4.4c0-0.9-0.3-1.4-1.3-1.4c-1,0-1.4,0.5-1.4,1.6v4.3h-2.5v-4.4c0-0.9-0.3-1.4-1.2-1.4
			c-1,0-1.4,0.5-1.4,1.6v4.3h-2.5V59.2z"/>
		<path class="st0" d="M139.8,59.2h2.5l-0.1,1.3c0.5-1,1.4-1.5,2.5-1.5c1.7,0,3,1.3,3,3.5v4.6h-2.5v-4.4c0-0.9-0.4-1.4-1.3-1.4
			c-1,0-1.6,0.6-1.6,1.6v4.3h-2.5V59.2z"/>
		<path class="st0" d="M149.9,56.3c0-0.9,0.7-1.6,1.6-1.6s1.6,0.7,1.6,1.6c0,0.9-0.7,1.6-1.6,1.6S149.9,57.3,149.9,56.3z
			 M150.3,59.2h2.5v8h-2.5V59.2z"/>
	</g>
	<g>
		<path class="st1" d="M117.5,20.5h8.1v30.3h-8.1V20.5z"/>
	</g>
	<g>
		<path class="st1" d="M153.4,50.8h-8.8l-4.2-7h-3v7h-8.1V20.5h11.5c8.2,0,12.7,5.2,12.7,11.9c0,4.4-1.9,7.8-5.5,9.8L153.4,50.8z
			 M140.3,37.4c3.7,0,5-2.1,5-5c0-2.9-1.3-5-5-5h-3v10H140.3z"/>
	</g>
	<g>
		<polygon class="st1" points="28.2,23.4 28.2,20.5 25.3,20.5 26.5,23.4 		"/>
		<polygon class="st1" points="12.9,40.4 26.5,40.4 26.5,37.6 12.9,37.6 12.9,23.4 25.9,23.4 24.7,20.5 9.7,20.5 9.7,50.8 
			28.8,50.8 28.8,48 12.9,48 		"/>
	</g>
	<g>
		<path class="st1" d="M92.5,40.5v-20h3.2v19.7c0,5.4,2.9,8.1,7.7,8.1c4.7,0,7.7-2.7,7.7-8.1V20.5h3.2v20c0,7.1-4.7,10.7-10.9,10.7
			C97.1,51.2,92.5,47.6,92.5,40.5z"/>
	</g>
	<g>
		<path class="st1" d="M48.6,26.8c-1.1,1.6-1.9,3.5-2.3,5.6L48.6,26.8z"/>
		<path class="st1" d="M49.4,25l1.9-4.5H48l-8.3,20.5c-0.6,1.5-1.3,4.1-1.3,4.1s-0.7-2.6-1.3-4.1l-8.3-20.5h-3.5l12.8,30.6h0.5
			l6.9-16.9C45.9,30.7,47.2,27.5,49.4,25z"/>
	</g>
	<g>
		<path class="st1" d="M77.2,35.7c0-1.7-0.2-3.3-0.7-4.7v9.5C76.9,38.9,77.2,37.3,77.2,35.7z"/>
		<path class="st1" d="M76,29.5c-2.3-5.7-7.9-9.3-14.4-9.3C53,20.2,46,26.5,46,35.7c0,9.1,7,15.5,15.6,15.5c6.5,0,12.1-3.6,14.4-9.3
			V29.5z M61.6,48.3c-7,0-12.2-5.4-12.2-12.6c0-7.2,5.2-12.6,12.2-12.6c7.1,0,12.3,5.4,12.3,12.6C73.8,42.9,68.7,48.3,61.6,48.3z"/>
	</g>
	<g>
		<path class="st1" d="M76.5,20.5h3.2V48H94v2.9H76.5V20.5z"/>
	</g>
	<g>
		<g>
			<linearGradient id="SVGID_1_" gradientUnits="userSpaceOnUse" x1="158.2917" y1="43.717" x2="199.1653" y2="43.717">
				<stop  offset="0" style="stop-color:#FFFFFF;stop-opacity:0"/>
				<stop  offset="1.600975e-02" style="stop-color:#FEF7F3;stop-opacity:1.600975e-02"/>
				<stop  offset="8.547193e-02" style="stop-color:#F9D7C2;stop-opacity:8.547193e-02"/>
				<stop  offset="0.1606" style="stop-color:#F4BA96;stop-opacity:0.1606"/>
				<stop  offset="0.2396" style="stop-color:#F0A170;stop-opacity:0.2396"/>
				<stop  offset="0.3237" style="stop-color:#ED8C50;stop-opacity:0.3237"/>
				<stop  offset="0.4142" style="stop-color:#EB7B36;stop-opacity:0.4142"/>
				<stop  offset="0.5136" style="stop-color:#E96E22;stop-opacity:0.5136"/>
				<stop  offset="0.6265" style="stop-color:#E76514;stop-opacity:0.6265"/>
				<stop  offset="0.7646" style="stop-color:#E6600B;stop-opacity:0.7646"/>
				<stop  offset="1" style="stop-color:#E65E09"/>
			</linearGradient>
			<path class="st2" d="M158.3,66.9V45.6h9.2V56h6.6V35.8h8.7V56h7.1V20.5h9.2v46.4H158.3z"/>
		</g>
	</g>
	<linearGradient id="SVGID_2_" gradientUnits="userSpaceOnUse" x1="169.4566" y1="54.6938" x2="169.4566" y2="45.63">
		<stop  offset="0" style="stop-color:#FFFFFF;stop-opacity:0"/>
		<stop  offset="8.999753e-02" style="stop-color:#FBE4D6;stop-opacity:8.999753e-02"/>
		<stop  offset="0.2227" style="stop-color:#F5C1A0;stop-opacity:0.2227"/>
		<stop  offset="0.357" style="stop-color:#F1A372;stop-opacity:0.357"/>
		<stop  offset="0.4901" style="stop-color:#ED8A4C;stop-opacity:0.4901"/>
		<stop  offset="0.6217" style="stop-color:#EA772F;stop-opacity:0.6217"/>
		<stop  offset="0.7515" style="stop-color:#E8691A;stop-opacity:0.7515"/>
		<stop  offset="0.8786" style="stop-color:#E6610D;stop-opacity:0.8786"/>
		<stop  offset="1" style="stop-color:#E65E09"/>
	</linearGradient>
	<rect x="168.4" y="45.6" class="st3" width="2.1" height="9.1"/>
	<linearGradient id="SVGID_3_" gradientUnits="userSpaceOnUse" x1="184.761" y1="54.6938" x2="184.761" y2="35.6647">
		<stop  offset="0" style="stop-color:#FFFFFF;stop-opacity:0"/>
		<stop  offset="8.999753e-02" style="stop-color:#FBE4D6;stop-opacity:8.999753e-02"/>
		<stop  offset="0.2227" style="stop-color:#F5C1A0;stop-opacity:0.2227"/>
		<stop  offset="0.357" style="stop-color:#F1A372;stop-opacity:0.357"/>
		<stop  offset="0.4901" style="stop-color:#ED8A4C;stop-opacity:0.4901"/>
		<stop  offset="0.6217" style="stop-color:#EA772F;stop-opacity:0.6217"/>
		<stop  offset="0.7515" style="stop-color:#E8691A;stop-opacity:0.7515"/>
		<stop  offset="0.8786" style="stop-color:#E6610D;stop-opacity:0.8786"/>
		<stop  offset="1" style="stop-color:#E65E09"/>
	</linearGradient>
	<rect x="183.7" y="35.7" class="st4" width="2.1" height="19"/>
	<linearGradient id="SVGID_4_" gradientUnits="userSpaceOnUse" x1="201.0312" y1="66.9245" x2="201.0312" y2="20.5095">
		<stop  offset="0" style="stop-color:#FFFFFF;stop-opacity:0"/>
		<stop  offset="8.999753e-02" style="stop-color:#FBE4D6;stop-opacity:8.999753e-02"/>
		<stop  offset="0.2227" style="stop-color:#F5C1A0;stop-opacity:0.2227"/>
		<stop  offset="0.357" style="stop-color:#F1A372;stop-opacity:0.357"/>
		<stop  offset="0.4901" style="stop-color:#ED8A4C;stop-opacity:0.4901"/>
		<stop  offset="0.6217" style="stop-color:#EA772F;stop-opacity:0.6217"/>
		<stop  offset="0.7515" style="stop-color:#E8691A;stop-opacity:0.7515"/>
		<stop  offset="0.8786" style="stop-color:#E6610D;stop-opacity:0.8786"/>
		<stop  offset="1" style="stop-color:#E65E09"/>
	</linearGradient>
	<rect x="200" y="20.5" class="st5" width="2.1" height="46.4"/>
</g>
</svg>
