<svg id="Layer_1" data-name="Layer 1" xmlns="http://www.w3.org/2000/svg" viewBox="0 0 226.58 140.5">
  <defs>
    <style>
      .cls-1 {
        fill: #fff;
      }

      .cls-2 {
        fill: #231f20;
      }
    </style>
  </defs>
  <title>logo-tattoaria</title>
  <path class="cls-1" d="M510.67,681.16c1-33.75,17-61.18,24.85-73.41,1-1.56-.74-3.72-1.93-5.89,20.14-1.83,39.95-4,40.59-17.8,0.32-6.84-6.57-12.59-7.43-13.08-0.48-.27-1,0.15-0.62.64a7.63,7.63,0,0,1,1.67,5.29c-0.63,9.22-16.12,12.84-34.89,15.12-27.39,3.32-47,10.12-47.79,24-0.69,12.13,10.18,15.95,16.72,15.82a0.77,0.77,0,1,0,.15-1.52c-3.15-.09-11.45-1.69-11.18-11,0.39-13.2,19.25-15.38,38.94-17.18-8.43,11.51-31.59,46.13-32.09,79.64-0.14,9.76,13.16,16,13.83,16,0.33,0,.66-0.14.52-0.8A69.64,69.64,0,0,1,510.67,681.16Zm166.74-80c-0.15,1.17,4.32,4.25,5.6,4.06s3.62-5.17,3.52-6.93-7.85-5.29-9-4.71C676.81,593.92,678.1,595.87,677.41,601.12Zm33.94,36.73a1,1,0,0,0-1.25.46c-0.08.08-1.42,1.57-2.05,2.14-1.42,1.29-3.94,3.37-6.68,3.58s-5-.18-5.13-4.52c-0.31-8.45,9.21-19.95,9.23-20.18,0.05-.77-4.18-4.22-5.39-4.33-0.44,0-1.94,2.2-3.57,5.29l-0.12.21c-1,1.54-2.12,3.32-3.57,5.35-3.69,5.19-8.54,10.42-10.77,13.74,3.13-14,13.11-27.77,16.63-27.63,1.35,0.05,4.44,2.26,6.36,3.14,4.22,1.93,5.5-.16,5.54-3.2,0-.8-0.47-0.91-1-0.42-1,.89-2.95,3.18-6.4,1-2.55-1.63-5.57-5-7.85-5-4.47,0-10.26,6.9-14.56,15.05-4.63,6.29-10.71,13.16-13.64,18a51.58,51.58,0,0,1,4-11.17c4.19-8.47,11-18.67,10.85-19.51-0.09-.6-1.53-1.24-2.82-1.95s-4.29-2.48-4.54-1.4c-0.57,2.44-3.14,7.42-5.94,13.23-5.45,7.65-12,15.7-15.13,20.77a63,63,0,0,1,4.94-11.33c3.5-6.41,6.38-11.88,6.22-13.82a4.25,4.25,0,0,0-2.13-3.14,63.3,63.3,0,0,0-8-4,22.46,22.46,0,0,0,1.23-5.91c0-.59-4.1,1.38-4.14,2.21a15.59,15.59,0,0,1-.29,2.26,13,13,0,0,1-2.69-1.57c-0.88-.78,1.39-2.4,3.22-3.64,1.51-1,2.93-1.56,2.93-2.43,0-.49-0.79-1.05-2.66-2.43-2.2-1.62-3.06-1.9-3.68-1.76-1.24.28-5.22,5.4-5.16,6.52-0.22,2.06,3.8,5.34,7.55,7.39-2.57,9.32-11,24.28-18.79,32.53A77,77,0,0,1,635.78,629c3.08-7.14,7.14-11.54,7.15-11.91,0-.79-3.66-3.19-5-3.25-0.47,0-2.07,2.55-3.94,6.24-0.85,1.38-1.85,2.92-3.06,4.63-3.66,5.15-8.45,10.33-10.71,13.65,3.14-14,13.06-27.68,16.57-27.54,1.35,0.05,4,2.28,6.1,2.79,1.52,0.38,4.06.33,4.29-2.88,0.06-.79-0.31-1.12-1-0.42a4.44,4.44,0,0,1-5.19.85c-2.65-1.39-5.27-4.85-7.56-4.87-5.29,0-12.42,9.66-16.75,19.62-2.33,2.58-4.74,4.67-6.65,5.05,4.54-6.86,8.22-14.51,8.38-18.61,0-.59-0.62-1.51-2.5-2.93-2.65-2-4.36-2.42-5.49-2.46-1.33-.05-4.24,4-6,8.89a17.81,17.81,0,0,0-5.81-4.58,0.6,0.6,0,0,0-.81.38c-0.33.77-1,2.58-3.38,8.16-0.65,1.55-1.32,3.15-2,4.76-4.2,6.92-8.8,12.51-11.49,16.83a123.69,123.69,0,0,1,5.24-14.16c4.44-10.38,9.5-18.29,13.12-25.48,18.94-.93,38.29-2,40.74-13.7a10.13,10.13,0,0,0-4-10.66,0.53,0.53,0,0,0-.89.53c0.63,3.27.46,6-5,10.49-5.95,4.92-16.76,6.38-28.15,7.29a34.39,34.39,0,0,0,1.69-5.86c0.21-1.13-6.56-5.85-7.85-4.81-0.49.4,0.07,3.29-2.43,11.3-2.2.16-4.37,0.32-6.5,0.52A36.82,36.82,0,0,0,588.8,590c0.2-1.26-7.44-6.27-8.83-5.08-0.59.5,0.84,2.86-2.41,13.12-6.69,1.15-12.11,1.74-15.13,5.26-2.71,3.15-1.6,8.28-1.09,9.73a0.58,0.58,0,0,0,1.15,0,10.32,10.32,0,0,1,5.12-6.72,34.29,34.29,0,0,1,7.9-2.37c-1.26,3.28-2.87,7.12-5,11.62-1.29,2.76-2.48,5.3-3.59,7.63-1.44,2.14-3,4.28-4.75,6.74-4,5.61-8.94,11.7-12,16.18a71.41,71.41,0,0,1,2.51-6.81c3.91-9.06,9.06-14.65,9.08-15.12,0-1-4.64-4.05-6.36-4.12-0.68,0-3,3.81-5.61,8.9-0.94,1.5-2,3.12-3.27,4.89-4.65,6.54-10.73,13.11-13.59,17.33,4-17.71,16.57-35.14,21-35,1.72,0.07,5.13,2.9,7.74,3.54,1.93,0.48,5.16.42,5.45-3.65,0.07-1-.39-1.42-1.28-0.53a5.63,5.63,0,0,1-6.59,1.08c-3.36-1.76-6.69-6.16-9.59-6.18-10.09-.06-25.47,27.75-26.07,42.66-0.07,1.68,6.2,6,7.32,6.49a1,1,0,0,0,1.39-.24c1.09-1.63,2-4.57,6.1-11.15,1.83-2.93,4.87-7.18,7.69-11.61-2.72,6.1-5,12.25-5.12,15.24-0.06,1.53,5.29,3,5.85,3.08a1.39,1.39,0,0,0,1.6-.63c1.12-1.48,2.33-4.33,6.24-11.11,2.46-4.26,5.31-7.55,8.57-12.24-3.83,8.09-5.89,12.8-5.93,15.94,0,1.53,5.69,3.69,6.58,3.89a1.39,1.39,0,0,0,1.5-.43c1.18-1.48,1.82-2.91,7-12.36a142.51,142.51,0,0,1,7.86-12.07c-4.67,9.3-7.24,14.67-7.37,17.88,0,1.21,4.21,3.07,5.39,3.45a2,2,0,0,0,1.3.08c0.75-.45,2.17-2.89,10.35-16.36l0.75-1.28a34,34,0,0,0-1.74,8.78c-0.15,3.64,4.91,6.53,6.42,6.59h0.25c3.33-.06,8.58-5.63,13.27-12.35l0.2,0c1.79,0.07,4.11-1.55,6.48-4-1.54,4.06-2.75,8-2.66,11.21,0,1.73,4.73,4.64,6,5.17a0.53,0.53,0,0,0,.77-0.3,69.76,69.76,0,0,1,4.87-8.74c1.69-2.43,4.24-6.27,6.64-10.07-2.67,6.05-5.11,12.87-5.18,16.67,0,1.21,3.75,2.22,4.48,2.41a1,1,0,0,0,1.07-.2c3.94-3.93,16.79-20.27,22.3-34.56a19.74,19.74,0,0,1,4,2.17c1.79,1.87-2.42,9.43-4.29,12.41s-6.73,11.52-6.93,16.4c0.06,1.29.86,2,2,3a11.07,11.07,0,0,0,2.76,2,0.48,0.48,0,0,0,.56-0.15c1.37-1.61,7.38-11.61,10.11-14.74q1.49-1.69,2.85-3.45c-2.39,5.59-4.33,11.21-4.51,15.61,0,1.22,4.19,2.58,5,2.68A0.52,0.52,0,0,0,666,646c1.54-2,6-10.3,8.59-13.51,1.55-2.11,2.85-3.86,4-5.4-2.17,5-3.63,10.06-3.79,14-0.06,1.43,5.81,5.38,6.3,5.32,0.88,0.12,2.08-4.14,5.38-9.18,1.63-2.35,4.09-6,6.43-9.63-1.52,3.7-2.62,7.85-2.2,11.87,0.57,5.47,5,8,10.25,7a51.67,51.67,0,0,1-7.75,4c-11.15,4.6-23.79,6-63.8,3.08-56.13-4.13-110.92,10.34-110.67,35.55,0.07,6.78,1.7,11.62,2.46,12.87,0.25,0.42.65,0.63,1-.13,14.53-28.63,46.53-44.12,106.08-42.29,49.17,1.51,59.43-2.69,67.57-7.28,9.25-5.22,14.3-11.31,15.48-13C711.8,638.55,711.74,638.09,711.35,637.86Zm-144.49,4.3c0.94-3.14,2.39-7.4,4.68-13.2,4.54-11.49,9.44-19.17,12.93-26.31,2.25-.21,4.58-0.37,7-0.51-1.39,3.57-3.25,7.82-5.76,12.87l-1.49,3C578.79,626.22,571.13,635.63,566.86,642.15Zm28,0.49A0.59,0.59,0,0,1,594,642c-1.26-8.5,7.51-20.28,9.38-22.51a19.6,19.6,0,0,0-.34,2.85c-0.13,3.22.74,7.29,3.09,9.21C602.42,637.31,598.08,641.64,594.82,642.64Zm12.48-12.81a5,5,0,0,1-1.09-3.5c0.25-6.19,6.83-13.52,9-15.19,0.25-.19.44-0.11,0.4,0.14C615.25,614.43,611.76,622.6,607.3,629.83Z" transform="translate(-485.08 -570.89)"/>
  <path class="cls-1" d="M654.36,681.13c1.54-4.86,6.29-7.38,9.85-8.33,0.92-.25.69-1.4-0.34-1.55-12.57-1.87-38.4-4.31-61.61-.67-21.21,3.32-32,7.81-35,9-6.72,2.63-9,2.61-9.72.1-0.45-2.84,3.88-7,8.38-7a2.36,2.36,0,1,0,3,.13c-0.7-.69-2.71-1.74-6.4-0.55-2.76.89-10,5.1-9.15,13.07,0.65,6.45,6.26,11.65,13.28,12.26a36.61,36.61,0,0,0,12.76-1.36c0.47,3.24-1.66,9.25-6.54,12.1-0.91.53-.05,1.72,0.83,1.31,3.47-1.63,10.75-6.73,33-9.93,24.25-3.48,52.27-4.27,57.06,3.09,2.9,4.46-5.57,10.05-12.24,5.81a2.35,2.35,0,1,0-3.33-2.2,2.24,2.24,0,0,0,.49,1.49c4.47,5.5,15.18,4.3,19.23-2.47C671.53,699.38,673.1,685.88,654.36,681.13Z" transform="translate(-485.08 -570.89)"/>
  <g>
    <path class="cls-2" d="M584.49,691c-4.22,0-7.1.82-11.86,2.11-1.13.31-.3,1.56,0.44,1.27a45.84,45.84,0,0,1,11.42-3.18C584.69,691.21,584.71,691,584.49,691Z" transform="translate(-485.08 -570.89)"/>
    <path class="cls-2" d="M643,685.48c4-.25,9.05.19,12.87,1.94,1.25,0.57,1.8-1,.57-1.46-4.16-1.46-9.8-1.41-13.46-.8C642.62,685.23,642.77,685.5,643,685.48Z" transform="translate(-485.08 -570.89)"/>
    <g>
      <path class="cls-2" d="M591.35,695.19l0.09-1.23,2.12-.45-0.31,5-2.79.62c-1.11.25-1.61-.23-1.52-1.41l0.55-6.72a2,2,0,0,1,1.72-2l0.94-.19c1.16-.24,1.69.21,1.62,1.34l-0.07,1.07-1.38.29,0.06-.88c0-.47-0.15-0.67-0.54-0.59l-0.34.07a0.81,0.81,0,0,0-.66.84l-0.47,6.21c0,0.5.15,0.71,0.57,0.62l1-.21,0.17-2.53Z" transform="translate(-485.08 -570.89)"/>
      <path class="cls-2" d="M595.87,698l0.78-10.05,3.31-.59-0.07,1.16-2,.36-0.21,3,1.78-.33-0.08,1.21-1.79.33-0.24,3.4,2-.4-0.08,1.26Z" transform="translate(-485.08 -570.89)"/>
      <path class="cls-2" d="M604.54,687.74L604,696.49l-1.37.23,0.65-8.78-1.27.2,0.09-1.16,3.82-.6-0.07,1.15Z" transform="translate(-485.08 -570.89)"/>
      <path class="cls-2" d="M611.1,695.41l0.73-9.82,1.28-.15-0.67,9.79Z" transform="translate(-485.08 -570.89)"/>
      <path class="cls-2" d="M618.14,689.49l0.32-4.59,1.25-.12-0.62,9.71-1.31.14,0.14-2-1.06-4.32-0.49,6.48-1.32.14,0.8-9.77,1.26-.12Z" transform="translate(-485.08 -570.89)"/>
      <path class="cls-2" d="M623,694.18l-1.29.09,0.84-9.69,1.24-.07Zm3-.2-1.29.09-1.22-4.73v-0.08l1.67-4.83,1.13-.06-1.65,4.77Z" transform="translate(-485.08 -570.89)"/>
      <path class="cls-2" d="M628,693.89l0.88-9.63,3-.06-0.09,1.12-1.8,0-0.25,2.86,1.62,0-0.09,1.16-1.63,0-0.28,3.26,1.87-.06-0.09,1.21Z" transform="translate(-485.08 -570.89)"/>
      <path class="cls-2" d="M633.34,693.77l1-9.58,2.09,0A1.42,1.42,0,0,1,638,686l-0.56,6.35a1.42,1.42,0,0,1-1.62,1.42Zm1.38-1.19h0.93a0.45,0.45,0,0,0,.53-0.43l0.58-6.13q0.06-.68-0.48-0.68h-0.84Z" transform="translate(-485.08 -570.89)"/>
      <path class="cls-2" d="M641,692.32L640.81,694l-1.32-.07,0.19-1.68Z" transform="translate(-485.08 -570.89)"/>
    </g>
    <g>
      <path class="cls-2" d="M583.49,683.93l0.11-1.21,2-.43-0.4,4.93-2.69.58c-1.06.23-1.54-.24-1.43-1.4l0.64-6.6a2,2,0,0,1,1.7-2l0.91-.19c1.12-.23,1.63.21,1.54,1.33L585.83,680l-1.33.27,0.07-.87q0.06-.7-0.5-0.58l-0.33.07a0.81,0.81,0,0,0-.65.82l-0.56,6.11c0,0.5.13,0.7,0.53,0.61l0.93-.2,0.21-2.48Z" transform="translate(-485.08 -570.89)"/>
      <path class="cls-2" d="M587.76,686.71l0.92-9.91,3.23-.59-0.09,1.15-1.93.36-0.26,2.95,1.73-.33-0.1,1.19-1.74.33-0.29,3.34,2-.38-0.1,1.23Z" transform="translate(-485.08 -570.89)"/>
      <path class="cls-2" d="M596.32,676.6l-0.71,8.65-1.33.23,0.76-8.67-1.24.2,0.11-1.16,3.74-.61-0.09,1.15Z" transform="translate(-485.08 -570.89)"/>
      <path class="cls-2" d="M602.58,684.14l0.81-9.73,1.26-.17-0.76,9.71Z" transform="translate(-485.08 -570.89)"/>
      <path class="cls-2" d="M609.54,678.17l0.35-4.58,1.24-.14-0.68,9.64-1.29.16,0.15-2-1-4.26-0.52,6.42-1.29.16,0.83-9.7,1.25-.15Z" transform="translate(-485.08 -570.89)"/>
      <path class="cls-2" d="M615.95,675.46l0.06-.83a0.41,0.41,0,0,0-.5-0.51l-0.19,0a0.59,0.59,0,0,0-.57.61l-0.12,1.57a0.41,0.41,0,0,0,.08.35,2.07,2.07,0,0,0,.32.21l1.13,0.54a4.69,4.69,0,0,1,.53.3,0.71,0.71,0,0,1,.23.28,1.63,1.63,0,0,1,0,.68l-0.14,2.08a1.72,1.72,0,0,1-1.66,1.82l-0.78.08q-1.53.15-1.38-1.67l0-.49,1.27-.12,0,0.53a0.42,0.42,0,0,0,.53.52l0.22,0a0.59,0.59,0,0,0,.54-0.63l0.12-1.66a0.42,0.42,0,0,0-.08-0.35,2,2,0,0,0-.32-0.21l-1.14-.57a3,3,0,0,1-.54-0.31,0.67,0.67,0,0,1-.22-0.36,1.89,1.89,0,0,1,0-.6l0.16-1.94a1.66,1.66,0,0,1,1.61-1.74l0.77-.07c1-.09,1.43.39,1.36,1.46l-0.06.91Z" transform="translate(-485.08 -570.89)"/>
      <path class="cls-2" d="M619.87,672.63l2.21-.15a1.17,1.17,0,0,1,1.36,1.49l-0.19,2.79a1.62,1.62,0,0,1-1.6,1.74l-1,.08-0.27,3.55-1.26.09Zm0.84,4.77,0.79-.06a0.55,0.55,0,0,0,.53-0.59l0.19-2.62a0.41,0.41,0,0,0-.51-0.51l-0.71,0Z" transform="translate(-485.08 -570.89)"/>
      <path class="cls-2" d="M625.19,681.79l0.74-9.54,1.2-.06-0.69,9.53Z" transform="translate(-485.08 -570.89)"/>
      <path class="cls-2" d="M629.71,672.08L632,672c0.91,0,1.33.49,1.26,1.54l-0.16,2.3a1.71,1.71,0,0,1-.83,1.59l0.58,4-1.17,0-0.52-3.9-0.74,0-0.31,3.93-1.24,0Zm0.85,4.46,0.8,0a0.62,0.62,0,0,0,.59-0.7l0.15-2c0-.45-0.13-0.67-0.49-0.66l-0.79,0Z" transform="translate(-485.08 -570.89)"/>
      <path class="cls-2" d="M635.09,681.44l0.78-9.48h2.94l-0.08,1.11H637l-0.22,2.83h1.58L638.25,677h-1.59l-0.25,3.2h1.81l-0.08,1.19h-3.05Z" transform="translate(-485.08 -570.89)"/>
      <path class="cls-2" d="M640.29,681.45l0.83-9.46,2,0.06a1.44,1.44,0,0,1,1.53,1.81l-0.46,6.28a1.34,1.34,0,0,1-1.57,1.38Zm1.32-1.15,0.91,0a0.43,0.43,0,0,0,.52-0.42l0.47-6.06c0-.45-0.13-0.67-0.48-0.68l-0.83,0Z" transform="translate(-485.08 -570.89)"/>
      <path class="cls-2" d="M647.73,680.07l-0.13,1.66-1.29-.07,0.14-1.66Z" transform="translate(-485.08 -570.89)"/>
    </g>
  </g>
</svg>
